<?xml version="1.0" standalone="no"?>
<!DOCTYPE svg PUBLIC "-//W3C//DTD SVG 20010904//EN"
 "http://www.w3.org/TR/2001/REC-SVG-20010904/DTD/svg10.dtd">
<svg version="1.0" xmlns="http://www.w3.org/2000/svg"
 width="495.000000pt" height="351.000000pt" viewBox="0 0 495.000000 351.000000"
 preserveAspectRatio="xMidYMid meet">

<g transform="translate(0.000000,351.000000) scale(0.100000,-0.100000)"
fill="#000000" stroke="none">
<path d="M2431 2655 c-159 -36 -275 -132 -330 -271 l-19 -49 -135 -5 c-153 -6
-171 -14 -181 -78 -3 -21 -17 -257 -32 -527 -14 -269 -26 -491 -27 -492 -1 0
-155 -13 -342 -28 -186 -14 -345 -31 -352 -37 -19 -15 -16 -47 4 -55 16 -6
596 32 656 44 l28 5 -3 -126 c-2 -119 -1 -127 20 -149 l23 -22 784 0 784 0 23
23 c22 21 23 29 20 142 -3 117 -3 120 18 120 30 0 534 -38 592 -45 34 -4 50
-1 62 10 18 19 19 24 6 45 -7 12 -79 20 -345 41 -184 14 -337 27 -339 30 -2 2
-13 227 -25 499 -12 272 -24 509 -27 527 -11 59 -31 67 -181 73 l-134 5 -23
57 c-48 119 -141 210 -252 249 -75 26 -192 33 -273 14z m205 -90 c74 -22 151
-81 201 -153 24 -35 43 -67 43 -73 0 -5 -141 -9 -355 -9 -195 0 -355 2 -355 5
0 11 50 84 81 119 95 108 247 152 385 111z m-566 -415 l0 -100 45 0 45 0 0
100 0 100 370 0 370 0 0 -100 0 -100 45 0 45 0 0 100 0 100 114 0 114 0 6 -72
c6 -68 56 -1165 56 -1215 l0 -23 -755 0 c-712 0 -755 1 -755 18 0 39 60 1172
66 1230 l6 62 114 0 114 0 0 -100z"/>
<path d="M2230 1550 c-11 -11 -20 -27 -20 -35 0 -8 9 -24 20 -35 11 -11 27
-20 35 -20 8 0 24 9 35 20 11 11 20 27 20 35 0 8 -9 24 -20 35 -11 11 -27 20
-35 20 -8 0 -24 -9 -35 -20z"/>
<path d="M2760 1550 c-11 -11 -20 -27 -20 -35 0 -8 9 -24 20 -35 11 -11 27
-20 35 -20 8 0 24 9 35 20 11 11 20 27 20 35 0 8 -9 24 -20 35 -11 11 -27 20
-35 20 -8 0 -24 -9 -35 -20z"/>
<path d="M2536 1370 c-32 -10 -67 -40 -99 -84 l-21 -29 55 7 c99 12 259 48
253 57 -10 17 -82 48 -121 53 -21 3 -51 1 -67 -4z"/>
</g>
</svg>
